# xmcd
# 
# Track frame offsets:
#     150
#     50475
#     65370
#     93422
#     114117
#     135107
#     151432
# 
# Disc length: 2556
# 
# Revision: 1
# Processed by: cddbd v1.5.2PL0 Copyright (c) Steve Scherf et al.
# Submitted via: BonkEnc v1.0.8
# 
DISCID=4d09fa07
DTITLE=Nashville All Stars - After The Riot In Newport
DYEAR=1960
DGENRE=Country
TTITLE0=Relaxin
TTITLE1=Nashville To Newport
TTITLE2=Opus De Funk
TTITLE3=Tis Wonderful
TTITLE4=Round Midnight
TTITLE5=Frankie And Johnny
TTITLE6=Riot-Chous
EXTD=
EXTT0=
EXTT1=
EXTT2=
EXTT3=
EXTT4=
EXTT5=
EXTT6=
PLAYORDER=
